<?xml version="1.0" encoding="utf-8"?>
<!-- Generator: Adobe Illustrator 18.0.0, SVG Export Plug-In . SVG Version: 6.00 Build 0)  -->
<!DOCTYPE svg PUBLIC "-//W3C//DTD SVG 1.1//EN" "http://www.w3.org/Graphics/SVG/1.1/DTD/svg11.dtd">
<svg version="1.1" id="Capa_1" xmlns="http://www.w3.org/2000/svg" xmlns:xlink="http://www.w3.org/1999/xlink" x="0px" y="0px"
	 viewBox="0 0 256 256" enable-background="new 0 0 256 256" xml:space="preserve">
<path fill="#FFFFFF" d="M94.4,179.5c-5.8,0-9.3-1.2-10.4-4.6c-0.6-1.7,0-4.1,1.7-5.8c5.2-3.5,7.5-7.5,8.1-11.6
	c-11-7-18.5-18-19.7-29.5c-1.2-9.8,1.7-20.3,8.7-29c9.3-11.6,23.7-19.1,40.5-20.9c2.3,0,5.2-0.6,7.5-0.6c27.2,0,49.2,16.8,52.1,38.2
	c1.2,11.6-1.7,23.2-8.7,32.4c-8.1,9.8-20.3,16.2-34.8,18c-2.3,0-5.2,0.6-7.5,0.6l0,0c-1.7,0-4.1,0-5.8,0
	C112.9,179,98.5,179.5,94.4,179.5z M130.3,86.9c-2.3,0-4.6,0-6.4,0.6c-13.9,1.7-26.6,8.1-34.2,18c-5.8,7-8.1,15.1-7,22.6
	c1.2,9.8,7.5,18.5,17.4,24.3c1.2,0.6,2.3,1.7,2.3,3.5c0.6,4.1-0.6,9.8-5.2,15.6c7-0.6,16.2-4.1,23.7-11.6c1.2-1.2,2.3-1.7,3.5-1.2
	c2.3,0,4.6,0.6,7,0.6l0,0c2.3,0,4.6,0,6.4-0.6c12.2-1.2,22.6-6.4,29-14.5c5.8-7,8.1-16.2,7-26.1C171.4,100.2,152.9,86.9,130.3,86.9z
	"/>
</svg>
