<?xml version="1.0" encoding="utf-8"?>
<!-- Generator: Adobe Illustrator 16.0.0, SVG Export Plug-In . SVG Version: 6.00 Build 0)  -->
<!DOCTYPE svg PUBLIC "-//W3C//DTD SVG 1.1//EN" "http://www.w3.org/Graphics/SVG/1.1/DTD/svg11.dtd">
<svg version="1.1" id="Layer_1" xmlns="http://www.w3.org/2000/svg" xmlns:xlink="http://www.w3.org/1999/xlink" x="0px" y="0px"
	 width="960px" height="560px" viewBox="0 0 960 560" enable-background="new 0 0 960 560" xml:space="preserve">
<path fill="#FFFFFF" d="M479.995,0C325.361,0,200.002,125.363,200.002,279.997C200.002,434.628,325.361,560,479.995,560
	c154.635,0,280.003-125.372,280.003-280.003C759.998,125.359,634.63,0,479.995,0z M665.709,263.428H611.48v158.367
	c0,8.684-7.043,15.782-15.781,15.782h-66.352V333.437c0-8.792-7.045-15.782-15.781-15.782h-67.006
	c-8.683,0-15.782,7.154-15.782,15.782v104.141h-66.351c-8.683,0-15.782-7.153-15.782-15.782V263.483h-54.228
	c-10.922,0-13.106-5.844-4.915-13.053L465.238,95.829c8.082-7.208,21.352-7.208,29.543,0L670.57,250.43
	C678.652,257.639,676.468,263.428,665.709,263.428z"/>
</svg>
