<?xml version="1.0" encoding="utf-8"?>
<!-- Generator: Adobe Illustrator 16.0.0, SVG Export Plug-In . SVG Version: 6.00 Build 0)  -->
<!DOCTYPE svg PUBLIC "-//W3C//DTD SVG 1.1//EN" "http://www.w3.org/Graphics/SVG/1.1/DTD/svg11.dtd">
<svg version="1.1" id="Layer_1" xmlns="http://www.w3.org/2000/svg" xmlns:xlink="http://www.w3.org/1999/xlink" x="0px" y="0px"
	 width="406px" height="94px" viewBox="0 0 406 94" enable-background="new 0 0 406 94" xml:space="preserve">
<g>
	<path fill="#FFFFFF" d="M54.557,38.017c-3.96,12.961-8.425,27.722-20.378,27.722c-5.904,0-10.513-3.816-10.513-9.722
		c0-6.265,4.896-11.88,10.369-11.88c0.72,0,1.368,0.072,2.088,0.288c0.648,0.216,1.08,0.792,1.08,1.44
		c0,1.008-0.936,1.728-1.944,1.512c-0.36-0.072-0.72-0.144-1.152-0.144c-3.96,0-7.417,4.464-7.417,8.641
		c0,4.464,3.384,6.841,7.417,6.841c10.081,0,14.185-14.545,17.569-25.562c1.656-5.544,3.312-10.873,5.329-14.833
		c1.44-2.736,3.744-4.752,6.553-5.473c1.008-0.216,1.656,0.36,1.8,1.296c0,1.08-0.648,1.584-1.224,1.728
		c-1.656,0.288-3.6,2.16-4.392,3.888C57.797,27.504,56.213,32.688,54.557,38.017z M59.021,70.562c-6.84,0-11.953-3.601-11.953-9.433
		c0-4.68,3.457-7.92,7.417-7.92c3.384,0,5.833,2.376,6.984,5.761c0.288,0.937-0.36,2.016-1.368,2.016
		c-0.648,0-1.224-0.359-1.44-1.008c-0.792-2.016-2.304-3.744-4.176-3.744c-2.376,0-4.393,2.16-4.393,4.896
		c0,4.321,4.393,6.409,8.929,6.409c12.529,0,19.154-18.073,19.154-31.106c0-11.881-4.537-20.378-15.985-20.954
		c-13.105,0-20.594,10.225-20.738,24.05c0,0.864-0.648,1.512-1.512,1.512c-0.792,0-1.512-0.648-1.512-1.512
		c0.144-15.841,9.145-27.074,23.762-27.074c13.393,0.647,19.01,10.44,19.01,23.977C81.2,51.626,73.351,70.562,59.021,70.562z"/>
	<path fill="#FFFFFF" d="M110.645,49.97c0,0.216-0.072,0.36-0.144,0.576c-4.681,10.369-10.153,15.121-17.426,15.121
		c-5.977,0-9.577-3.96-9.433-9.865c0.432-9.217,7.921-24.194,16.417-24.194c3.6,0,6.121,1.872,6.121,5.329
		c0,7.633-10.729,12.241-18.722,14.185c-0.504,1.872-0.72,3.239-0.792,4.752c-0.144,4.104,2.16,6.625,6.48,6.769
		c5.904,0.145,10.513-4.031,14.545-13.32c0.36-0.721,1.224-1.08,2.016-0.792C110.284,48.816,110.645,49.395,110.645,49.97z
		 M103.156,36.937c0-1.944-1.512-2.304-3.096-2.304c-4.968,0-9.145,7.489-11.449,13.033
		C94.587,45.793,103.156,42.265,103.156,36.937z"/>
	<path fill="#FFFFFF" d="M154.853,50.762c-2.664,6.049-6.625,14.905-13.033,14.905c-3.528,0-5.256-2.521-5.256-6.048
		c0-6.553,5.617-15.481,5.617-21.386c0-2.088-0.864-3.744-3.745-3.744c-4.176,0-9.793,9.433-11.881,15.265
		c-0.144,0.432-4.969,14.545-4.896,14.401c-0.216,0.647-0.792,1.008-1.44,1.008c-1.08,0-1.8-1.08-1.44-2.017
		c0.072-0.215,4.825-14.33,4.896-14.474c1.512-4.392,2.592-7.632,2.592-10.153c0-2.664-1.008-4.032-3.601-4.032
		c-2.016,0-4.176,2.304-6.264,5.256c-1.296,1.944-5.617,9.865-6.049,11.017l-4.896,13.897c-0.288,0.863-1.152,1.224-1.944,1.008
		c-0.792-0.288-1.224-1.152-0.936-1.943c3.672-10.369,7.417-20.739,11.089-31.106c0.216-0.648,0.792-1.008,1.44-1.008
		c1.08,0,1.8,1.08,1.44,2.016c-0.288,0.648-0.504,1.224-0.72,1.944c2.088-2.448,4.393-4.104,6.84-4.104
		c4.321,0,6.625,2.809,6.625,6.625c2.088-3.312,5.76-6.625,9.145-6.625c5.185,0,6.769,2.953,6.769,6.769
		c0,6.913-5.545,15.193-5.545,21.386c0,2.088,0.648,3.023,2.16,3.023c3.528,0,6.408-4.248,10.297-13.32
		c0.216-0.576,0.864-0.938,1.44-0.938c0.72,0,1.512,0.721,1.512,1.512C155.069,50.114,154.997,50.258,154.853,50.762z"/>
	<path fill="#FFFFFF" d="M172.202,61.059c-2.016,0-3.888-0.647-5.472-1.943c-2.665,3.601-6.337,6.553-9.793,6.553
		c-4.681,0-6.265-3.096-6.265-7.271c0-8.354,3.744-15.337,6.12-19.227c3.024-5.04,6.553-7.561,10.153-7.561
		c4.752,0.144,7.2,3.384,7.2,7.705c0,4.537-2.304,11.593-5.616,17.209c0.792,1.008,2.016,1.512,3.672,1.512
		c3.024,0,5.545-2.736,8.065-8.712c0.217-0.576,0.793-0.938,1.369-0.938c1.08,0,1.871,1.081,1.439,2.089
		C179.907,57.746,176.522,61.059,172.202,61.059z M167.81,50.33c-0.217,0.576-0.217,1.152-0.288,1.656
		c2.231-4.465,3.6-9.434,3.6-12.745c0-3.024-1.8-4.608-4.248-4.608c-2.736,0-5.328,2.52-7.417,6.121
		c-1.872,3.096-5.688,10.081-5.688,17.498c0,2.592,0.864,4.393,3.169,4.393c2.664,0,5.688-2.881,8.064-6.265
		c-0.792-1.873-0.648-5.041-0.145-6.841c0.145-0.721,0.793-1.152,1.513-1.152C167.377,48.385,168.098,49.322,167.81,50.33z"/>
	<path fill="#FFFFFF" d="M206.042,49.97c0,0.216-0.071,0.36-0.146,0.576c-4.393,9.792-9.576,15.121-17.93,15.121
		c-5.256,0-8.712-3.96-8.712-9.865c0-11.233,9.001-24.194,16.345-24.194c4.105,0,6.121,2.809,6.121,6.769
		c0,3.24-1.584,6.553-3.24,6.553c-0.936,0-1.512-0.504-1.512-1.44c0-1.008,1.727-2.232,1.727-5.113c0-2.52-0.936-3.744-3.096-3.744
		c-5.615,0-13.32,12.601-13.32,21.242c0,4.033,2.305,6.77,5.76,6.77c6.984,0,11.449-5.041,15.049-13.321
		c0.361-0.72,1.226-1.08,2.019-0.792C205.684,48.816,206.042,49.395,206.042,49.97z"/>
	<path fill="#FFFFFF" d="M232.538,49.896c0,0.217-0.072,0.433-0.146,0.648c-4.68,10.729-8.281,15.121-13.178,15.121h-0.072
		c-3.383,0-5.11-2.52-5.11-6.048c0-1.44,0.215-2.88,0.719-4.681c0.576-2.305,3.746-11.881,4.394-13.465
		c-5.474-1.8-6.265-2.088-7.849-2.88c-0.289,0.864-0.793,1.872-6.553,14.473c-0.289,0.576-0.793,0.865-1.297,0.865
		c-0.287,0-0.504-0.072-0.719-0.145c-0.504-0.288-0.865-0.792-0.865-1.368c0-0.216,0.072-0.433,0.145-0.647l5.761-12.529l0.864-2.16
		c-2.159-1.512-3.672-3.384-3.672-6.048c0-2.953,2.088-4.681,4.392-4.681c2.594,0,4.178,1.872,4.178,4.752
		c0,1.152-0.289,1.8-1.152,4.608c2.016,1.008,4.465,1.8,6.553,2.52c1.008,0.288,1.943,0.576,2.736,0.864
		c0.791,0.288,1.152,1.224,0.863,2.088c-0.937,2.376-4.394,12.672-4.824,14.473c-0.432,1.512-0.576,2.736-0.648,3.96
		c0,1.8,0.576,3.024,2.16,3.024c3.529,0,6.266-4.033,10.369-13.322c0.289-0.575,0.793-0.937,1.369-0.937
		c0.215,0,0.432,0.072,0.646,0.144C232.177,48.816,232.538,49.322,232.538,49.896z M209.352,29.376
		c-0.937,0-1.367,0.576-1.367,1.368c0,1.152,0.647,2.448,1.729,3.312c0.359-1.008,0.791-2.304,0.791-3.024
		C210.503,29.808,209.927,29.376,209.352,29.376z"/>
	<path fill="#FFFFFF" d="M245.784,49.896c0,0.217-0.072,0.433-0.146,0.648c-3.457,7.775-7.201,15.121-13.25,15.121
		c-3.455,0-5.328-2.736-5.184-6.048c0.215-5.617,5.328-18.794,8.496-27.002c0.217-0.648,0.793-1.008,1.369-1.008
		c0.936,0,1.871,0.72,1.438,1.944c-6.983,19.658-8.28,22.97-8.28,26.066c0,2.088,0.647,3.024,2.16,3.024
		c4.465,0,7.776-7.418,10.44-13.322c0.289-0.575,0.862-0.937,1.438-0.937c0.217,0,0.361,0.072,0.576,0.144
		C245.423,48.746,245.784,49.322,245.784,49.896z M237.575,25.487c0-1.368,1.151-2.448,2.521-2.448c1.368,0,2.448,1.08,2.448,2.448
		c0,1.368-1.08,2.448-2.448,2.448C238.729,27.936,237.575,26.855,237.575,25.487z"/>
	<path fill="#FFFFFF" d="M260.759,49.896c0,0.217-0.069,0.433-0.143,0.648c-4.179,9-8.209,15.121-14.834,15.121
		c-3.457,0-5.328-2.592-5.328-6.048c0-2.665,1.801-8.929,4.104-14.833l3.674-10.297h-4.537c-0.865,0-1.512-0.648-1.512-1.512
		c0-0.792,0.646-1.512,1.512-1.512h5.545c0.143-0.288,3.672-10.441,3.744-10.729c0.215-0.648,0.791-1.008,1.438-1.008
		c1.08,0,1.802,1.08,1.438,2.016c0.218-0.432-2.879,8.353-3.383,9.721h4.824c0.863,0,1.512,0.72,1.512,1.512
		c0,0.864-0.647,1.512-1.512,1.512h-5.904c-0.434,1.368-1.655,4.68-4.032,11.377c-2.951,8.353-3.89,11.665-3.89,13.753
		c0,1.944,0.865,3.024,2.305,3.024c5.185,0,8.642-5.978,12.025-13.394c0.287-0.504,0.863-0.864,1.439-0.864
		c0.217,0,0.432,0.072,0.648,0.145C260.398,48.816,260.759,49.322,260.759,49.896z"/>
	<path fill="#FFFFFF" d="M274.007,49.896c0,0.217-0.071,0.433-0.146,0.648c-3.457,7.775-7.2,15.121-13.25,15.121
		c-3.454,0-5.327-2.736-5.184-6.048c0.215-5.617,5.328-18.794,8.496-27.002c0.217-0.648,0.793-1.008,1.369-1.008
		c0.936,0,1.871,0.72,1.439,1.944c-6.984,19.658-8.281,22.97-8.281,26.066c0,2.088,0.648,3.024,2.16,3.024
		c4.465,0,7.777-7.418,10.44-13.322c0.289-0.575,0.863-0.937,1.439-0.937c0.217,0,0.36,0.072,0.575,0.144
		C273.646,48.746,274.007,49.322,274.007,49.896z M265.798,25.487c0-1.368,1.152-2.448,2.521-2.448c1.369,0,2.449,1.08,2.449,2.448
		c0,1.368-1.08,2.448-2.449,2.448C266.95,27.936,265.798,26.855,265.798,25.487z"/>
	<path fill="#FFFFFF" d="M303.095,50.042c0,0.216-0.069,0.36-0.143,0.576c-3.529,7.417-6.843,13.681-12.818,13.969
		c0.505,2.736,0.793,5.185,0.793,7.345c0,7.562-2.521,13.826-8.28,13.826c-3.457-0.145-5.185-2.089-5.185-5.904
		c0-2.881,0.215-3.672,4.896-17.569c-1.944,1.944-4.178,3.384-6.696,3.384c-4.32,0-5.978-3.527-5.978-7.633
		c0-9.505,7.201-26.426,15.914-26.426c3.023,0,4.969,1.08,6.48,3.672l1.08-2.736c0.287-0.792,1.152-1.224,1.943-0.936
		c0.793,0.36,1.151,1.224,0.864,2.016c-0.938,2.304-4.608,12.169-6.771,18.218c-7.057,20.091-8.713,25.13-8.713,28.011
		c0,2.231,0.865,2.879,2.16,2.879c3.672,0,5.187-5.185,5.187-10.152c0-2.52-0.218-5.688-1.011-9.289
		c-0.069-0.216-0.143-0.504-0.069-0.721c0.144-0.863,1.008-1.295,1.799-1.151c0.433,0.072,0.793,0.144,1.152,0.144
		c4.608,0,7.704-6.264,10.44-12.168c0.287-0.576,0.863-0.937,1.439-0.937c0.217,0,0.361,0.071,0.576,0.144
		C302.735,48.891,303.095,49.466,303.095,50.042z M288.479,44.497c0.434-1.152,1.729-4.104,1.729-4.176
		c-0.145-3.744-1.656-5.688-4.607-5.688c-6.625,0.144-12.746,15.697-12.891,22.898c0,3.168,0.648,4.968,2.809,5.111
		C281.352,62.787,285.6,51.842,288.479,44.497z"/>
	<path fill="#FFFFFF" d="M331.966,49.896c0,0.217-0.072,0.433-0.143,0.648c-4.683,10.729-8.281,15.121-13.105,15.121
		c-3.168,0-4.754-1.943-5.186-5.111c-2.088,2.951-5.4,5.111-8.642,5.111h-0.071c-4.535,0-6.912-2.592-6.912-7.489
		c0-3.6,1.729-7.849,8.641-25.778c0.217-0.576,0.793-0.936,1.369-0.936c1.223,0,1.799,1.08,1.439,2.016
		c-7.634,20.306-8.425,21.818-8.425,24.698c0,2.952,1.367,4.464,3.959,4.464c2.953,0,5.904-2.447,8.281-7.344
		c2.521-5.041,5.185-12.673,8.928-22.898c0.218-0.576,0.793-0.936,1.369-0.936c1.152,0,1.873,1.08,1.513,2.016
		c-1.585,4.177-2.951,8.065-4.031,10.945c-2.736,7.417-4.394,13.249-4.394,15.193c0,2.088,0.648,3.023,2.16,3.023
		c3.455,0,6.265-4.104,10.369-13.32c0.215-0.576,0.791-0.938,1.367-0.938c0.217,0,0.432,0.072,0.647,0.145
		C331.606,48.816,331.966,49.322,331.966,49.896z"/>
	<path fill="#FFFFFF" d="M353.43,53.184c-4.682,10.368-8.938,12.483-16.21,12.483c-5.977,0-9.576-3.96-9.434-9.865
		c0.432-9.217,7.922-24.194,16.418-24.194c3.6,0,6.121,1.872,6.121,5.329c0,7.633-10.73,12.241-18.724,14.185
		c-0.504,1.872-0.719,3.239-0.791,4.752c-0.145,4.104,2.16,6.625,6.48,6.769c5.904,0.145,9.316-1.345,13.35-10.634 M347.3,36.937
		c0-1.944-1.512-2.304-3.096-2.304c-4.969,0-9.146,7.489-11.449,13.033C338.731,45.793,347.3,42.265,347.3,36.937z"/>
</g>
<path fill="#FFFFFF" d="M350.642,52.009c2.653-6.304,7.956-9.62,13.331-7.357c4.313,1.815,5.959,6.258,4.424,9.909
	c-1.312,3.119-4.453,4.453-8.019,4.203c-0.977-0.099-1.722-1.115-1.33-2.044c0.252-0.597,0.809-0.987,1.489-0.937
	c2.166,0.053,4.344-0.672,5.071-2.396c0.922-2.189-0.288-4.886-2.811-5.947c-3.98-1.676-7.608,1.563-9.369,5.744"/>
</svg>
