<?xml version="1.0" encoding="utf-8"?>
<!-- Generator: Adobe Illustrator 16.0.0, SVG Export Plug-In . SVG Version: 6.00 Build 0)  -->
<!DOCTYPE svg PUBLIC "-//W3C//DTD SVG 1.1//EN" "http://www.w3.org/Graphics/SVG/1.1/DTD/svg11.dtd">
<svg version="1.1" id="Layer_1" xmlns="http://www.w3.org/2000/svg" xmlns:xlink="http://www.w3.org/1999/xlink" x="0px" y="0px"
	 width="406px" height="94px" viewBox="0 0 406 94" enable-background="new 0 0 406 94" xml:space="preserve">
<g>
	<path fill="#FFFFFF" d="M54.557,38.017c-3.96,12.961-8.425,27.722-20.378,27.722c-5.904,0-10.513-3.816-10.513-9.721
		c0-6.265,4.896-11.881,10.369-11.881c0.72,0,1.368,0.072,2.088,0.288c0.648,0.216,1.08,0.792,1.08,1.44
		c0,1.008-0.936,1.728-1.944,1.512c-0.36-0.072-0.72-0.144-1.152-0.144c-3.96,0-7.417,4.464-7.417,8.641
		c0,4.464,3.384,6.841,7.417,6.841c10.081,0,14.185-14.545,17.569-25.562c1.656-5.544,3.312-10.873,5.329-14.833
		c1.44-2.736,3.744-4.752,6.553-5.473c1.008-0.216,1.656,0.36,1.8,1.296c0,1.08-0.648,1.584-1.224,1.728
		c-1.656,0.288-3.6,2.16-4.392,3.888C57.797,27.504,56.213,32.688,54.557,38.017z M59.021,70.563c-6.84,0-11.953-3.601-11.953-9.433
		c0-4.68,3.457-7.92,7.417-7.92c3.384,0,5.833,2.376,6.984,5.76c0.288,0.937-0.36,2.017-1.368,2.017c-0.648,0-1.224-0.36-1.44-1.008
		c-0.792-2.016-2.304-3.744-4.176-3.744c-2.376,0-4.393,2.16-4.393,4.896c0,4.321,4.393,6.409,8.929,6.409
		c12.529,0,19.154-18.073,19.154-31.106c0-11.881-4.537-20.378-15.985-20.954c-13.105,0-20.594,10.225-20.738,24.05
		c0,0.864-0.648,1.512-1.512,1.512c-0.792,0-1.512-0.648-1.512-1.512c0.144-15.841,9.145-27.074,23.762-27.074
		C75.583,13.103,81.2,22.896,81.2,36.433C81.2,51.626,73.351,70.563,59.021,70.563z"/>
	<path fill="#FFFFFF" d="M110.645,49.97c0,0.216-0.072,0.36-0.144,0.576c-4.681,10.369-10.153,15.121-17.426,15.121
		c-5.977,0-9.577-3.96-9.433-9.865c0.432-9.217,7.921-24.194,16.417-24.194c3.6,0,6.121,1.872,6.121,5.329
		c0,7.633-10.729,12.241-18.722,14.185c-0.504,1.872-0.72,3.24-0.792,4.752c-0.144,4.104,2.16,6.625,6.48,6.769
		c5.904,0.144,10.513-4.032,14.545-13.321c0.36-0.72,1.224-1.08,2.016-0.792C110.284,48.817,110.645,49.394,110.645,49.97z
		 M103.156,36.937c0-1.944-1.512-2.304-3.096-2.304c-4.968,0-9.145,7.489-11.449,13.033
		C94.587,45.793,103.156,42.265,103.156,36.937z"/>
	<path fill="#FFFFFF" d="M154.853,50.762c-2.664,6.048-6.625,14.905-13.033,14.905c-3.528,0-5.256-2.52-5.256-6.048
		c0-6.553,5.617-15.481,5.617-21.386c0-2.088-0.864-3.744-3.745-3.744c-4.176,0-9.793,9.433-11.881,15.265
		c-0.144,0.432-4.969,14.545-4.896,14.401c-0.216,0.648-0.792,1.008-1.44,1.008c-1.08,0-1.8-1.08-1.44-2.016
		c0.072-0.216,4.825-14.33,4.896-14.474c1.512-4.392,2.592-7.632,2.592-10.153c0-2.664-1.008-4.032-3.601-4.032
		c-2.016,0-4.176,2.304-6.264,5.256c-1.296,1.944-5.617,9.865-6.049,11.017l-4.896,13.897c-0.288,0.864-1.152,1.224-1.944,1.008
		c-0.792-0.288-1.224-1.152-0.936-1.944c3.672-10.369,7.417-20.738,11.089-31.106c0.216-0.648,0.792-1.008,1.44-1.008
		c1.08,0,1.8,1.08,1.44,2.016c-0.288,0.648-0.504,1.224-0.72,1.944c2.088-2.448,4.393-4.104,6.84-4.104
		c4.321,0,6.625,2.809,6.625,6.625c2.088-3.312,5.76-6.625,9.145-6.625c5.185,0,6.769,2.953,6.769,6.769
		c0,6.913-5.545,15.193-5.545,21.386c0,2.088,0.648,3.024,2.16,3.024c3.528,0,6.408-4.248,10.297-13.321
		c0.216-0.576,0.864-0.937,1.44-0.937c0.72,0,1.512,0.72,1.512,1.512C155.069,50.114,154.997,50.258,154.853,50.762z"/>
	<path fill="#FFFFFF" d="M172.202,61.059c-2.016,0-3.888-0.648-5.472-1.944c-2.665,3.601-6.337,6.553-9.793,6.553
		c-4.681,0-6.265-3.096-6.265-7.272c0-8.353,3.744-15.337,6.12-19.226c3.024-5.04,6.553-7.561,10.153-7.561
		c4.752,0.144,7.2,3.384,7.2,7.705c0,4.537-2.304,11.593-5.616,17.209c0.792,1.008,2.016,1.512,3.672,1.512
		c3.024,0,5.545-2.736,8.065-8.712c0.217-0.576,0.793-0.937,1.369-0.937c1.08,0,1.871,1.081,1.439,2.088
		C179.907,57.746,176.522,61.059,172.202,61.059z M167.81,50.33c-0.217,0.576-0.217,1.152-0.288,1.656
		c2.231-4.464,3.6-9.433,3.6-12.745c0-3.024-1.8-4.608-4.248-4.608c-2.736,0-5.328,2.52-7.417,6.121
		c-1.872,3.096-5.688,10.081-5.688,17.498c0,2.592,0.864,4.392,3.169,4.392c2.664,0,5.688-2.88,8.064-6.264
		c-0.792-1.873-0.648-5.041-0.145-6.841c0.145-0.72,0.793-1.152,1.513-1.152C167.377,48.385,168.098,49.322,167.81,50.33z"/>
	<path fill="#FFFFFF" d="M206.042,49.97c0,0.216-0.072,0.36-0.145,0.576c-4.393,9.792-9.576,15.121-17.93,15.121
		c-5.256,0-8.712-3.96-8.712-9.865c0-11.233,9.001-24.194,16.345-24.194c4.105,0,6.121,2.809,6.121,6.769
		c0,3.24-1.584,6.553-3.24,6.553c-0.936,0-1.512-0.504-1.512-1.44c0-1.008,1.727-2.232,1.727-5.113c0-2.52-0.936-3.744-3.096-3.744
		c-5.615,0-13.32,12.601-13.32,21.242c0,4.033,2.305,6.769,5.76,6.769c6.984,0,11.449-5.041,15.049-13.321
		c0.361-0.72,1.225-1.08,2.018-0.792C205.683,48.817,206.042,49.394,206.042,49.97z"/>
	<path fill="#FFFFFF" d="M232.538,49.897c0,0.216-0.072,0.432-0.145,0.648c-4.68,10.729-8.281,15.121-13.178,15.121h-0.072
		c-3.383,0-5.111-2.52-5.111-6.048c0-1.44,0.215-2.88,0.719-4.681c0.576-2.304,3.746-11.881,4.393-13.465
		c-5.473-1.8-6.264-2.088-7.848-2.88c-0.289,0.864-0.793,1.872-6.553,14.473c-0.289,0.576-0.793,0.864-1.297,0.864
		c-0.287,0-0.504-0.072-0.719-0.144c-0.504-0.288-0.865-0.792-0.865-1.368c0-0.216,0.072-0.432,0.145-0.648l5.76-12.529l0.865-2.16
		c-2.16-1.512-3.672-3.384-3.672-6.048c0-2.953,2.088-4.681,4.391-4.681c2.594,0,4.178,1.872,4.178,4.752
		c0,1.152-0.289,1.8-1.152,4.608c2.016,1.008,4.465,1.8,6.553,2.52c1.008,0.288,1.943,0.576,2.736,0.864
		c0.791,0.288,1.152,1.224,0.863,2.088c-0.936,2.376-4.393,12.673-4.824,14.473c-0.432,1.512-0.576,2.736-0.648,3.96
		c0,1.8,0.576,3.024,2.16,3.024c3.529,0,6.266-4.032,10.369-13.321c0.289-0.576,0.793-0.937,1.369-0.937
		c0.215,0,0.432,0.072,0.646,0.144C232.177,48.817,232.538,49.322,232.538,49.897z M209.351,29.376
		c-0.936,0-1.367,0.576-1.367,1.368c0,1.152,0.648,2.448,1.729,3.312c0.359-1.008,0.791-2.304,0.791-3.024
		C210.503,29.808,209.927,29.376,209.351,29.376z"/>
	<path fill="#FFFFFF" d="M245.784,49.897c0,0.216-0.072,0.432-0.145,0.648c-3.457,7.776-7.201,15.121-13.25,15.121
		c-3.455,0-5.328-2.736-5.184-6.048c0.215-5.617,5.328-18.794,8.496-27.002c0.217-0.648,0.793-1.008,1.369-1.008
		c0.936,0,1.871,0.72,1.439,1.944c-6.984,19.658-8.281,22.97-8.281,26.066c0,2.088,0.648,3.024,2.16,3.024
		c4.465,0,7.777-7.417,10.441-13.321c0.289-0.576,0.863-0.937,1.439-0.937c0.217,0,0.361,0.072,0.576,0.144
		C245.423,48.746,245.784,49.322,245.784,49.897z M237.575,25.487c0-1.368,1.152-2.448,2.52-2.448c1.369,0,2.449,1.08,2.449,2.448
		c0,1.368-1.08,2.448-2.449,2.448C238.728,27.936,237.575,26.855,237.575,25.487z"/>
	<path fill="#FFFFFF" d="M260.759,49.897c0,0.216-0.07,0.432-0.143,0.648c-4.178,9-8.209,15.121-14.834,15.121
		c-3.457,0-5.328-2.592-5.328-6.048c0-2.665,1.801-8.929,4.104-14.833l3.674-10.297h-4.537c-0.865,0-1.512-0.648-1.512-1.512
		c0-0.792,0.646-1.512,1.512-1.512h5.545c0.143-0.288,3.672-10.441,3.744-10.729c0.215-0.648,0.791-1.008,1.439-1.008
		c1.08,0,1.801,1.08,1.439,2.016c0.217-0.432-2.879,8.353-3.383,9.721h4.824c0.863,0,1.512,0.72,1.512,1.512
		c0,0.864-0.648,1.512-1.512,1.512h-5.904c-0.434,1.368-1.656,4.68-4.033,11.377c-2.951,8.353-3.889,11.665-3.889,13.753
		c0,1.944,0.865,3.024,2.305,3.024c5.184,0,8.641-5.977,12.025-13.393c0.287-0.504,0.863-0.864,1.439-0.864
		c0.217,0,0.432,0.072,0.648,0.144C260.399,48.817,260.759,49.322,260.759,49.897z"/>
	<path fill="#FFFFFF" d="M274.007,49.897c0,0.216-0.072,0.432-0.145,0.648c-3.457,7.776-7.201,15.121-13.25,15.121
		c-3.455,0-5.328-2.736-5.184-6.048c0.215-5.617,5.328-18.794,8.496-27.002c0.217-0.648,0.793-1.008,1.369-1.008
		c0.936,0,1.871,0.72,1.439,1.944c-6.984,19.658-8.281,22.97-8.281,26.066c0,2.088,0.648,3.024,2.16,3.024
		c4.465,0,7.777-7.417,10.441-13.321c0.289-0.576,0.863-0.937,1.439-0.937c0.217,0,0.361,0.072,0.576,0.144
		C273.646,48.746,274.007,49.322,274.007,49.897z M265.798,25.487c0-1.368,1.152-2.448,2.52-2.448c1.369,0,2.449,1.08,2.449,2.448
		c0,1.368-1.08,2.448-2.449,2.448C266.95,27.936,265.798,26.855,265.798,25.487z"/>
	<path fill="#FFFFFF" d="M303.095,50.042c0,0.216-0.07,0.36-0.143,0.576c-3.529,7.417-6.842,13.681-12.818,13.969
		c0.504,2.736,0.793,5.185,0.793,7.345c0,7.561-2.521,13.826-8.281,13.826c-3.457-0.145-5.184-2.089-5.184-5.905
		c0-2.88,0.215-3.672,4.896-17.569c-1.945,1.944-4.178,3.384-6.697,3.384c-4.32,0-5.977-3.528-5.977-7.633
		c0-9.505,7.201-26.426,15.914-26.426c3.023,0,4.969,1.08,6.48,3.672l1.08-2.736c0.287-0.792,1.152-1.224,1.943-0.936
		c0.793,0.36,1.152,1.224,0.865,2.016c-0.938,2.304-4.609,12.169-6.77,18.218c-7.057,20.09-8.713,25.13-8.713,28.01
		c0,2.232,0.865,2.88,2.16,2.88c3.672,0,5.186-5.185,5.186-10.153c0-2.52-0.217-5.688-1.01-9.289c-0.07-0.216-0.143-0.504-0.07-0.72
		c0.143-0.864,1.008-1.296,1.799-1.152c0.432,0.072,0.793,0.144,1.152,0.144c4.609,0,7.705-6.264,10.441-12.169
		c0.287-0.576,0.863-0.936,1.439-0.936c0.217,0,0.361,0.072,0.576,0.144C302.735,48.89,303.095,49.466,303.095,50.042z
		 M288.478,44.497c0.434-1.152,1.729-4.104,1.729-4.176c-0.145-3.744-1.656-5.688-4.607-5.688
		c-6.625,0.144-12.746,15.697-12.891,22.898c0,3.168,0.648,4.968,2.809,5.112C281.351,62.787,285.599,51.842,288.478,44.497z"/>
	<path fill="#FFFFFF" d="M331.966,49.897c0,0.216-0.072,0.432-0.143,0.648c-4.682,10.729-8.281,15.121-13.105,15.121
		c-3.168,0-4.754-1.944-5.186-5.112c-2.088,2.952-5.4,5.112-8.641,5.112h-0.072c-4.535,0-6.912-2.592-6.912-7.489
		c0-3.6,1.729-7.849,8.641-25.778c0.217-0.576,0.793-0.936,1.369-0.936c1.223,0,1.799,1.08,1.439,2.016
		c-7.633,20.306-8.424,21.818-8.424,24.698c0,2.952,1.367,4.464,3.959,4.464c2.953,0,5.904-2.448,8.281-7.344
		c2.52-5.041,5.184-12.673,8.928-22.898c0.217-0.576,0.793-0.936,1.369-0.936c1.152,0,1.873,1.08,1.512,2.016
		c-1.584,4.177-2.951,8.065-4.031,10.945c-2.736,7.417-4.393,13.249-4.393,15.193c0,2.088,0.648,3.024,2.16,3.024
		c3.455,0,6.264-4.104,10.369-13.321c0.215-0.576,0.791-0.937,1.367-0.937c0.217,0,0.432,0.072,0.648,0.144
		C331.606,48.817,331.966,49.322,331.966,49.897z"/>
	<path fill="#FFFFFF" d="M353.43,53.183c-4.682,10.369-8.938,12.484-16.21,12.484c-5.977,0-9.576-3.96-9.434-9.865
		c0.432-9.217,7.922-24.194,16.418-24.194c3.6,0,6.121,1.872,6.121,5.329c0,7.633-10.73,12.241-18.723,14.185
		c-0.504,1.872-0.719,3.24-0.791,4.752c-0.145,4.104,2.16,6.625,6.48,6.769c5.904,0.144,9.316-1.345,13.35-10.634 M347.3,36.937
		c0-1.944-1.512-2.304-3.096-2.304c-4.969,0-9.145,7.489-11.449,13.033C338.731,45.793,347.3,42.265,347.3,36.937z"/>
</g>
<path fill="#FFFFFF" d="M350.642,52.009c2.653-6.304,7.956-9.62,13.331-7.357c4.313,1.815,5.959,6.258,4.423,9.908
	c-1.312,3.12-4.453,4.454-8.018,4.203c-0.977-0.098-1.722-1.114-1.33-2.043c0.252-0.597,0.808-0.988,1.489-0.937
	c2.166,0.053,4.344-0.671,5.071-2.396c0.922-2.19-0.288-4.886-2.81-5.947c-3.981-1.676-7.609,1.563-9.369,5.744"/>
</svg>
