<?xml version="1.0" encoding="utf-8"?>
<!-- Generator: Adobe Illustrator 16.0.0, SVG Export Plug-In . SVG Version: 6.00 Build 0)  -->
<!DOCTYPE svg PUBLIC "-//W3C//DTD SVG 1.1//EN" "http://www.w3.org/Graphics/SVG/1.1/DTD/svg11.dtd">
<svg version="1.1" id="Layer_1" xmlns="http://www.w3.org/2000/svg" xmlns:xlink="http://www.w3.org/1999/xlink" x="0px" y="0px"
	 width="406px" height="94px" viewBox="0 0 406 94" enable-background="new 0 0 406 94" xml:space="preserve">
<g>
	<path fill="#FFFFFF" d="M40.476,58.716V28.233c0-1.536,1.249-2.784,2.785-2.784H58.67c4.512,0,8.161,3.648,8.161,8.161v19.73
		c0,4.465-3.648,8.16-8.161,8.16H43.261C41.725,61.5,40.476,60.252,40.476,58.716z M58.67,57.371c2.016,0,3.648-1.632,3.648-3.648
		V33.226c0-2.016-1.632-3.648-3.648-3.648H45.901c-0.528,0-0.912,0.384-0.912,0.912v25.97c0,0.479,0.384,0.912,0.912,0.912
		L58.67,57.371L58.67,57.371z"/>
	<path fill="#FFFFFF" d="M77.053,33.226v9.121c0.48-0.576,1.344-0.96,2.352-0.96h15.793v3.504c0,0.336-0.288,0.624-0.624,0.624
		H77.053v8.208c0,2.018,1.632,3.648,3.648,3.648h15.553c0.336,0,0.624,0.289,0.624,0.625V61.5H80.701
		c-4.513,0-8.161-3.648-8.161-8.16V33.61c0-4.512,3.648-8.161,8.161-8.161h16.177v3.504c0,0.336-0.288,0.624-0.624,0.624H80.701
		C78.685,29.577,77.053,31.209,77.053,33.226z"/>
	<path fill="#FFFFFF" d="M106.573,26.265l11.953,21.889l12.001-21.889c0.24-0.432,0.816-0.768,1.296-0.768h3.36
		c0.336,0,0.624,0.24,0.624,0.624v35.331h-3.888c-0.336,0-0.624-0.288-0.624-0.624V32.793l-10.033,19.059
		c-0.192,0.336-0.576,0.575-0.96,0.575h-3.504c-0.384,0-0.768-0.239-0.96-0.575l-10.033-19.059v28.035
		c0,0.336-0.288,0.624-0.624,0.624h-3.888V26.121c0-0.384,0.288-0.624,0.624-0.624h3.36
		C105.757,25.497,106.333,25.833,106.573,26.265z"/>
	<path fill="#FFFFFF" d="M149.772,61.691c-4.513,0-8.161-3.647-8.161-8.16V33.417c0-4.512,3.648-8.161,8.161-8.161h10.849
		c4.464,0,8.161,3.648,8.161,8.161v20.114c0,4.513-3.696,8.16-8.161,8.16H149.772z M146.124,33.034v20.882
		c0,2.016,1.632,3.646,3.648,3.646h10.849c2.016,0,3.648-1.631,3.648-3.646V33.034c0-2.016-1.632-3.648-3.648-3.648h-10.849
		C147.756,29.385,146.124,31.018,146.124,33.034z"/>
	<path fill="#FFFFFF" d="M174.54,33.609c0-4.512,3.648-8.161,8.161-8.161h15.841v3.504c0,0.336-0.287,0.624-0.624,0.624H182.7
		c-2.016,0-3.648,1.632-3.648,3.648v20.497c0,2.018,1.632,3.648,3.648,3.648h15.217c0.337,0,0.624,0.289,0.624,0.625V61.5H182.7
		c-4.513,0-8.161-3.695-8.161-8.16L174.54,33.609L174.54,33.609z"/>
	<path fill="#FFFFFF" d="M208.283,44.219v16.657c0,0.336-0.288,0.624-0.624,0.624h-3.89V28.233c0-1.536,1.248-2.784,2.785-2.784
		h15.073c4.513,0,8.16,2.833,8.16,7.729v4.656c0,4.224-3.024,6.528-6.528,7.44l7.682,16.226h-4.178c-0.336,0-0.72-0.288-0.863-0.576
		l-7.297-15.409h-6.145h-1.393c-1.344,0-2.354-0.384-2.688-1.296H208.283z M221.629,41.386c2.016,0,3.646-1.632,3.646-3.648v-4.512
		c0-2.016-1.631-3.648-3.646-3.648h-12.434c-0.528,0-0.912,0.432-0.912,0.912v9.985c0,0.528,0.432,0.912,0.912,0.912h12.434V41.386z
		"/>
	<path fill="#FFFFFF" d="M235.787,60.876V25.449h3.888c0.337,0,0.624,0.288,0.624,0.624V61.5h-3.888
		C236.075,61.5,235.787,61.212,235.787,60.876z"/>
	<path fill="#FFFFFF" d="M270.973,25.449v3.504c0,0.336-0.287,0.624-0.623,0.624h-10.272v31.299c0,0.336-0.24,0.624-0.625,0.624
		h-3.888V29.577h-10.754v-3.504c0-0.336,0.289-0.624,0.625-0.624H270.973z"/>
	<path fill="#FFFFFF" d="M275.674,60.876V25.449h3.889c0.336,0,0.623,0.288,0.623,0.624V61.5h-3.888
		C275.962,61.5,275.674,61.212,275.674,60.876z"/>
	<path fill="#FFFFFF" d="M313.932,33.417v20.114c0,3.695-2.544,6.863-5.951,7.824l1.68,3.937h-3.36
		c-0.384,0-0.768-0.239-0.912-0.576l-1.296-3.022h-9.169c-4.513,0-8.159-3.648-8.159-8.161V33.417c0-4.512,3.646-8.161,8.159-8.161
		h10.85C310.235,25.257,313.932,28.905,313.932,33.417z M309.419,33.034c0-2.016-1.632-3.648-3.647-3.648h-10.85
		c-2.016,0-3.648,1.632-3.648,3.648v20.882c0,2.016,1.634,3.646,3.648,3.646h7.345l-1.92-4.367h3.36c0.384,0,0.768,0.24,0.912,0.576
		l1.68,3.744c1.729-0.24,3.12-1.776,3.12-3.601V33.034L309.419,33.034z"/>
	<path fill="#FFFFFF" d="M319.785,53.531V25.449h3.888c0.336,0,0.624,0.288,0.624,0.624v27.843c0,2.016,1.633,3.646,3.648,3.646
		h10.849c2.017,0,3.648-1.631,3.648-3.646V26.073c0-0.336,0.288-0.624,0.624-0.624h3.889v28.083c0,4.513-3.696,8.161-8.161,8.161
		h-10.849C323.433,61.691,319.785,58.044,319.785,53.531z"/>
	<path fill="#FFFFFF" d="M357.321,33.226v9.121c0.479-0.576,1.344-0.96,2.353-0.96h15.793v3.504c0,0.336-0.288,0.624-0.624,0.624
		h-17.521v8.208c0,2.018,1.632,3.648,3.647,3.648h15.555c0.336,0,0.624,0.289,0.624,0.625V61.5H360.97
		c-4.513,0-8.161-3.648-8.161-8.16V33.61c0-4.512,3.648-8.161,8.161-8.161h16.179v3.504c0,0.336-0.288,0.624-0.624,0.624H360.97
		C358.953,29.577,357.321,31.209,357.321,33.226z"/>
</g>
<path fill="#FFFFFF" d="M24.683,41.409c-1.008,0-1.872,0.385-2.352,0.961v3.168h17.521c0.336,0,0.624-0.289,0.624-0.625v-3.504
	H24.683z"/>
</svg>
