<?xml version="1.0" encoding="utf-8"?>
<!-- Generator: Adobe Illustrator 16.0.0, SVG Export Plug-In . SVG Version: 6.00 Build 0)  -->
<!DOCTYPE svg PUBLIC "-//W3C//DTD SVG 1.1//EN" "http://www.w3.org/Graphics/SVG/1.1/DTD/svg11.dtd">
<svg version="1.1" id="Layer_1" xmlns="http://www.w3.org/2000/svg" xmlns:xlink="http://www.w3.org/1999/xlink" x="0px" y="0px"
	 width="960px" height="560px" viewBox="0 0 960 560" enable-background="new 0 0 960 560" xml:space="preserve">
<g>
	<rect x="497.975" y="341.625" fill="#FFFFFF" width="125.825" height="17.975"/>
	<rect x="497.975" y="377.575" fill="#FFFFFF" width="125.825" height="17.975"/>
	<rect x="497.975" y="305.675" fill="#FFFFFF" width="125.825" height="17.976"/>
	<rect x="336.2" y="269.725" fill="#FFFFFF" width="143.8" height="125.825"/>
	<path fill="#FFFFFF" d="M479.995,0C325.361,0,200.002,125.363,200.002,279.997C200.002,434.628,325.361,560,479.995,560
		c154.635,0,280.003-125.372,280.003-280.003C759.998,125.359,634.63,0,479.995,0z M659.75,395.55
		c0,19.772-16.178,35.95-35.95,35.95H336.2c-19.772,0-35.95-16.178-35.95-35.95v-287.6l30.558,30.558l28.76-30.558l30.558,30.558
		l30.558-30.558l28.76,30.558L480,107.95l28.76,30.558l30.558-30.558l30.558,30.558l30.558-30.558l28.76,30.558l30.558-30.558
		V395.55z"/>
	<rect x="497.975" y="269.725" fill="#FFFFFF" width="125.825" height="17.976"/>
	<rect x="336.2" y="197.825" fill="#FFFFFF" width="287.6" height="53.925"/>
</g>
</svg>
