<?xml version="1.0" encoding="utf-8"?>
<!-- Generator: Adobe Illustrator 16.0.0, SVG Export Plug-In . SVG Version: 6.00 Build 0)  -->
<!DOCTYPE svg PUBLIC "-//W3C//DTD SVG 1.1//EN" "http://www.w3.org/Graphics/SVG/1.1/DTD/svg11.dtd">
<svg version="1.1" id="Layer_1" xmlns="http://www.w3.org/2000/svg" xmlns:xlink="http://www.w3.org/1999/xlink" x="0px" y="0px"
	 width="960px" height="560px" viewBox="0 0 960 560" enable-background="new 0 0 960 560" xml:space="preserve">
<g>
	<path fill="#FFFFFF" d="M422.188,292.656h-69.375c-6.38,0-11.562,5.177-11.562,11.562c0,6.385,5.183,11.562,11.562,11.562h69.375
		c6.391,0,11.562-5.178,11.562-11.562C433.75,297.833,428.579,292.656,422.188,292.656z"/>
	<path fill="#FFFFFF" d="M352.812,200.156v0.006h231.25v-0.006c6.391,0,11.562-5.171,11.562-11.562
		c0-6.38-5.172-11.562-11.562-11.562c-0.011,0-0.018,0.006-0.028,0.006H352.841c-0.01,0-0.019-0.006-0.028-0.006
		c-6.38,0-11.562,5.183-11.562,11.562C341.25,194.985,346.433,200.156,352.812,200.156z"/>
	<path fill="#FFFFFF" d="M468.438,234.844H352.812c-6.38,0-11.562,5.177-11.562,11.562s5.183,11.562,11.562,11.562h115.625
		c6.391,0,11.562-5.177,11.562-11.562S474.829,234.844,468.438,234.844z"/>
	<path fill="#FFFFFF" d="M603.23,307.465l2.737-12.793l-12.443-4.015c-3.539-1.141-6.317-3.913-7.457-7.452l-4.021-12.461
		l-12.787,2.75c-3.659,0.803-7.425-0.236-10.186-2.727l-9.699-8.773l-9.699,8.773c-2.767,2.49-6.55,3.523-10.186,2.727l-12.787-2.75
		l-4.021,12.461c-1.14,3.54-3.918,6.312-7.457,7.452l-12.444,4.015l2.738,12.793c0.78,3.63-0.23,7.418-2.727,10.174l-8.768,9.705
		l8.768,9.704c2.496,2.755,3.507,6.544,2.728,10.174l-2.737,12.793l12.442,4.015c3.54,1.141,6.317,3.913,7.458,7.452l4.015,12.456
		l12.787-2.756c0.807-0.175,1.62-0.26,2.433-0.26c2.84,0,5.612,1.044,7.758,2.987l9.699,8.779l9.699-8.78
		c2.762-2.5,6.572-3.517,10.191-2.727l12.787,2.756l4.015-12.455c1.14-3.54,3.918-6.312,7.457-7.452l12.443-4.015l-2.737-12.793
		c-0.78-3.63,0.23-7.418,2.727-10.174l8.768-9.705l-8.768-9.705C603.461,314.884,602.451,311.095,603.23,307.465z M549.375,362.031
		c-19.128,0-34.688-15.56-34.688-34.688c0-19.129,15.56-34.688,34.688-34.688s34.688,15.559,34.688,34.688
		C584.062,346.472,568.503,362.031,549.375,362.031z"/>
	<path fill="#FFFFFF" d="M479.995,0C325.361,0,200.002,125.363,200.002,279.997C200.002,434.628,325.361,560,479.995,560
		c154.635,0,280.003-125.372,280.003-280.003C759.998,125.359,634.63,0,479.995,0z M665,362.031
		c0,12.719-10.406,23.125-23.125,23.125h-34.688v92.499c0,4.382-2.473,8.385-6.391,10.344c-1.638,0.818-3.41,1.22-5.172,1.22
		c-2.456,0-4.896-0.784-6.938-2.314l-39.312-29.482l-39.312,29.482c-3.512,2.62-8.191,3.049-12.11,1.096
		c-3.918-1.96-6.391-5.962-6.391-10.344v-92.5H318.125c-12.719,0-23.125-10.406-23.125-23.125V153.906
		c0-12.772,10.354-23.125,23.125-23.125h323.75c12.719,0,23.125,10.406,23.125,23.125V362.031z"/>
</g>
</svg>
