<?xml version="1.0" encoding="utf-8"?>
<!-- Generator: Adobe Illustrator 18.0.0, SVG Export Plug-In . SVG Version: 6.00 Build 0)  -->
<!DOCTYPE svg PUBLIC "-//W3C//DTD SVG 1.1//EN" "http://www.w3.org/Graphics/SVG/1.1/DTD/svg11.dtd">
<svg version="1.1" id="Capa_1" xmlns="http://www.w3.org/2000/svg" xmlns:xlink="http://www.w3.org/1999/xlink" x="0px" y="0px"
	 viewBox="0 0 256 256" enable-background="new 0 0 256 256" xml:space="preserve">
<g>
	<path fill="#FFFFFF" d="M0,128C0,57.3,57.3,0,128,0s128,57.3,128,128s-57.3,128-128,128S0,198.7,0,128z M247.3,128
		C247.3,62,194,8.7,128,8.7S8.7,62,8.7,128S62,247.3,128,247.3S247.3,194,247.3,128z"/>
	<path fill="#FFFFFF" d="M83.4,143.1c0-1.2,0.6-2.3,1.2-2.9l42.3-42.3c1.7-1.7,4.6-1.7,6.4,0l42.3,42.3c1.7,1.7,1.7,4.6,0,6.4
		c-1.7,1.7-4.6,1.7-6.4,0l-39.4-39.4l-39.4,39.4c-1.7,1.7-4.6,1.7-6.4,0C83.4,145.4,83.4,144.2,83.4,143.1z"/>
</g>
</svg>
