<?xml version="1.0" encoding="utf-8"?>
<!-- Generator: Adobe Illustrator 16.0.0, SVG Export Plug-In . SVG Version: 6.00 Build 0)  -->
<!DOCTYPE svg PUBLIC "-//W3C//DTD SVG 1.1//EN" "http://www.w3.org/Graphics/SVG/1.1/DTD/svg11.dtd">
<svg version="1.1" id="Layer_1" xmlns="http://www.w3.org/2000/svg" xmlns:xlink="http://www.w3.org/1999/xlink" x="0px" y="0px"
	 width="960px" height="560px" viewBox="0 0 960 560" enable-background="new 0 0 960 560" xml:space="preserve">
<g>
	<g>
		<path fill="#FFFFFF" d="M479.995,0C325.361,0,200.002,125.363,200.002,279.997C200.002,434.628,325.361,560,479.995,560
			c154.635,0,280.003-125.372,280.003-280.003C759.998,125.359,634.63,0,479.995,0z M480.849,412.095v-0.003h-1.71H359.536
			c0-87.466,76.817-87.444,93.864-110.316l1.95-10.428c-23.949-12.138-40.855-41.399-40.855-75.624
			c0-45.088,29.329-81.645,65.5-81.645s65.5,36.557,65.5,81.645c0,33.933-16.605,63.012-40.236,75.34l2.222,11.853
			c18.702,21.762,92.966,23.181,92.966,109.179L480.849,412.095L480.849,412.095z"/>
	</g>
</g>
</svg>
