<?xml version="1.0" encoding="utf-8"?>
<!-- Generator: Adobe Illustrator 16.0.0, SVG Export Plug-In . SVG Version: 6.00 Build 0)  -->
<!DOCTYPE svg PUBLIC "-//W3C//DTD SVG 1.1//EN" "http://www.w3.org/Graphics/SVG/1.1/DTD/svg11.dtd">
<svg version="1.1" id="Layer_1" xmlns="http://www.w3.org/2000/svg" xmlns:xlink="http://www.w3.org/1999/xlink" x="0px" y="0px"
	 width="960px" height="560px" viewBox="0 0 960 560" enable-background="new 0 0 960 560" xml:space="preserve">
<g>
	<g>
		<path fill="#FFFFFF" d="M480.001,254.531c-14.043,0-25.47,11.426-25.47,25.47c0,14.042,11.426,25.47,25.47,25.47
			c14.043,0,25.47-11.428,25.47-25.47C505.471,265.957,494.044,254.531,480.001,254.531z M479.992,0
			c-154.632,0-279.99,125.367-279.99,279.994S325.36,560,479.992,560c154.633,0,280.006-125.371,280.006-280.006
			C759.998,125.36,634.625,0,479.992,0z M480.001,31.498l34.386,59.557h-68.771L480.001,31.498z M290.194,314.387l-59.557-34.385
			l59.557-34.387V314.387z M480,530.223l-34.386-59.557h68.771L480,530.223z M651.115,124.166l-98.791,222.282
			c-1.164,2.619-3.259,4.713-5.878,5.879l-222.282,98.789c-1.511,0.672-3.111,0.998-4.698,0.998c-3.01,0-5.97-1.172-8.189-3.391
			c-3.386-3.387-4.337-8.512-2.392-12.889l98.792-222.28c1.164-2.619,3.258-4.714,5.877-5.877l222.281-98.792
			c4.377-1.945,9.502-0.994,12.888,2.395C652.11,114.665,653.061,119.79,651.115,124.166z M669.805,314.388v-68.77l59.558,34.384
			L669.805,314.388z"/>
	</g>
	<g>
		<path fill="none" stroke="#FFFFFF" stroke-miterlimit="10" d="M480.001,254.531c-14.043,0-25.47,11.426-25.47,25.47
			c0,14.042,11.426,25.47,25.47,25.47c14.043,0,25.47-11.428,25.47-25.47C505.471,265.957,494.044,254.531,480.001,254.531z
			 M479.992,0c-154.632,0-279.99,125.367-279.99,279.994S325.36,560,479.992,560c154.633,0,280.006-125.371,280.006-280.006
			C759.998,125.36,634.625,0,479.992,0z M480.001,31.498l34.386,59.557h-68.771L480.001,31.498z M290.194,314.387l-59.557-34.385
			l59.557-34.387V314.387z M480,530.223l-34.386-59.557h68.771L480,530.223z M651.115,124.166l-98.791,222.282
			c-1.164,2.619-3.259,4.713-5.878,5.879l-222.282,98.789c-1.511,0.672-3.111,0.998-4.698,0.998c-3.01,0-5.97-1.172-8.189-3.391
			c-3.386-3.387-4.337-8.512-2.392-12.889l98.792-222.28c1.164-2.619,3.258-4.714,5.877-5.877l222.281-98.792
			c4.377-1.945,9.502-0.994,12.888,2.395C652.11,114.665,653.061,119.79,651.115,124.166z M669.805,314.388v-68.77l59.558,34.384
			L669.805,314.388z"/>
	</g>
</g>
</svg>
