<?xml version="1.0" encoding="utf-8"?>
<!-- Generator: Adobe Illustrator 16.0.0, SVG Export Plug-In . SVG Version: 6.00 Build 0)  -->
<!DOCTYPE svg PUBLIC "-//W3C//DTD SVG 1.1//EN" "http://www.w3.org/Graphics/SVG/1.1/DTD/svg11.dtd">
<svg version="1.1" id="Layer_1" xmlns="http://www.w3.org/2000/svg" xmlns:xlink="http://www.w3.org/1999/xlink" x="0px" y="0px"
	 width="960px" height="560px" viewBox="0 0 960 560" enable-background="new 0 0 960 560" xml:space="preserve">
<path fill="#FFFFFF" d="M479.995,0C325.361,0,200.002,125.363,200.002,279.997C200.002,434.628,325.361,560,479.995,560
	c154.635,0,280.003-125.372,280.003-280.003C759.998,125.359,634.63,0,479.995,0z M644.68,444.681
	c-11.973,11.973-31.383,11.972-43.354-0.001l-173.42-173.42l-21.677,21.678c10.839,10.838,11.971,31.385,0,43.354l-10.839,10.839
	c-11.971,11.973-31.387,11.968-43.358-0.004l-86.711-86.711c-11.972-11.972-11.966-31.378,0.005-43.35l10.839-10.839
	c11.972-11.972,32.517-10.839,43.355,0l86.712-86.712c-10.839-10.839-11.971-31.384,0-43.355l10.838-10.838
	c11.972-11.972,31.375-11.975,43.348-0.003l86.711,86.711c11.974,11.972,11.979,31.385,0.006,43.356l-10.838,10.839
	c-11.973,11.972-32.518,10.839-43.354,0l-21.681,21.68l173.42,173.42C656.652,413.296,656.65,432.709,644.68,444.681z"/>
</svg>
