<?xml version="1.0" encoding="utf-8"?>
<!-- Generator: Adobe Illustrator 16.0.0, SVG Export Plug-In . SVG Version: 6.00 Build 0)  -->
<!DOCTYPE svg PUBLIC "-//W3C//DTD SVG 1.1//EN" "http://www.w3.org/Graphics/SVG/1.1/DTD/svg11.dtd">
<svg version="1.1" id="Layer_1" xmlns="http://www.w3.org/2000/svg" xmlns:xlink="http://www.w3.org/1999/xlink" x="0px" y="0px"
	 width="960px" height="560px" viewBox="0 0 960 560" enable-background="new 0 0 960 560" xml:space="preserve">
<radialGradient id="SVGID_1_" cx="482.3018" cy="278.6982" r="276.6973" gradientUnits="userSpaceOnUse">
	<stop  offset="0" style="stop-color:#FFFFFF"/>
	<stop  offset="0.5149" style="stop-color:#FDFDFD"/>
	<stop  offset="0.7003" style="stop-color:#F6F6F6"/>
	<stop  offset="0.8325" style="stop-color:#EBEBEB"/>
	<stop  offset="0.9387" style="stop-color:#DADADA"/>
	<stop  offset="1" style="stop-color:#CCCCCC"/>
</radialGradient>
<path fill="url(#SVGID_1_)" stroke="#D3D3D3" stroke-width="3" stroke-miterlimit="10" d="M482.297,2
	c-152.81,0-276.691,123.884-276.691,276.695c0,152.807,123.881,276.701,276.691,276.701c152.812,0,276.701-123.895,276.701-276.701
	C758.998,125.88,635.108,2,482.297,2z"/>
<path fill="#6B3D1B" d="M656.235,430.484c4.554,4.553,4.541,11.939,0,16.492l-5.506,5.494c-4.567,4.553-11.939,4.553-16.498,0
	L449.354,267.6c-4.554-4.555-4.554-11.939,0-16.494l5.5-5.494c4.561-4.554,11.939-4.554,16.494,0L656.235,430.484z"/>
<path fill="#4C2C15" d="M454.853,245.613l-5.499,5.494c-4.555,4.553-4.555,11.939,0,16.492l91.407,91.414
	c4.554,4.555,11.939,4.541,16.493,0l5.493-5.506c4.566-4.553,4.566-11.939,0-16.48l-91.396-91.414
	C466.798,241.059,459.413,241.059,454.853,245.613z"/>
<path fill="#C17E52" d="M491.573,239.294c1.21,1.223,1.235,3.21,0,4.422l-44.111,44.118c-1.21,1.209-3.192,1.209-4.402-0.012
	l-6.139-6.133c-1.205-1.211-1.205-3.176,0-4.398l44.11-44.117c1.234-1.21,3.199-1.21,4.423,0L491.573,239.294z"/>
<path fill="#6B3D1B" d="M532.865,171.715c4.547,4.577,4.547,11.951,0,16.505L391.979,329.105c-4.554,4.566-11.939,4.566-16.505,0
	l-74.904-74.903c-4.566-4.566-4.566-11.938,0-16.493L441.457,96.824c4.554-4.554,11.938-4.566,16.493,0L532.865,171.715z"/>
<path fill="#875023" d="M441.457,96.824l-140.886,140.88c-4.566,4.554-4.566,11.927,0,16.493l19.933,19.944
	c4.553,4.553,11.932,4.541,16.492,0l140.898-140.898c4.548-4.566,4.548-11.939,0-16.504L457.95,96.824
	C453.396,92.258,446.011,92.27,441.457,96.824z"/>
<path fill="#AD6F40" d="M405.38,321.896c4.562,4.555,4.562,11.938,0,16.492l-13.751,13.752c-4.547,4.541-11.933,4.555-16.486,0
	l-97.594-97.602c-4.554-4.553-4.554-11.938,0-16.492l13.746-13.751c4.547-4.542,11.932-4.542,16.486,0L405.38,321.896z"/>
<path fill="#C17E52" d="M277.549,254.539c-4.554-4.553-4.554-11.938,0-16.492l13.746-13.751c4.547-4.542,11.932-4.542,16.486,0
	l97.594,97.601"/>
<path fill="#AD6F40" d="M555.882,171.402c4.565,4.542,4.565,11.926,0,16.48l-13.74,13.74c-4.554,4.554-11.933,4.554-16.491,0
	l-97.596-97.588c-4.548-4.554-4.548-11.939,0-16.493l13.751-13.739c4.554-4.554,11.921-4.554,16.487,0L555.882,171.402z"/>
<path fill="#C17E52" d="M428.054,104.034c-4.548-4.554-4.548-11.939,0-16.493l13.751-13.739c4.554-4.554,11.921-4.554,16.487,0
	l97.582,97.601"/>
</svg>
