<?xml version="1.0" encoding="utf-8"?>
<!-- Generator: Adobe Illustrator 16.0.0, SVG Export Plug-In . SVG Version: 6.00 Build 0)  -->
<!DOCTYPE svg PUBLIC "-//W3C//DTD SVG 1.1//EN" "http://www.w3.org/Graphics/SVG/1.1/DTD/svg11.dtd">
<svg version="1.1" id="Capa_1" xmlns="http://www.w3.org/2000/svg" xmlns:xlink="http://www.w3.org/1999/xlink" x="0px" y="0px"
	 width="640px" height="480px" viewBox="0 0 640 480" enable-background="new 0 0 640 480" xml:space="preserve">
<g>
	<path fill="#FFFFFF" d="M320,480C187.511,480,80,372.488,80,240C80,107.511,187.511,0,320,0c132.488,0,240,107.511,240,240
		C560,372.488,452.488,480,320,480z M320,16.29c-123.801,0-223.71,99.91-223.71,223.71S196.199,463.71,320,463.71
		S543.71,363.801,543.71,240S443.801,16.29,320,16.29z"/>
	<g>
		<line fill="none" x1="320" y1="141.176" x2="320" y2="267.149"/>
		<path fill="#FFFFFF" d="M320,274.751c-4.344,0-8.688-3.258-8.688-8.688V141.176c0-4.344,3.258-8.688,8.688-8.688
			s8.688,3.258,8.688,8.688v125.973C328.688,271.493,324.344,274.751,320,274.751z"/>
	</g>
	<g>
		<line fill="none" x1="219.004" y1="319.276" x2="420.995" y2="319.276"/>
		<path fill="#FFFFFF" d="M420.995,327.964H219.004c-4.344,0-8.688-3.258-8.688-8.688c0-5.431,3.258-8.688,8.688-8.688h201.991
			c4.345,0,7.603,3.258,7.603,8.688C428.598,324.706,425.34,327.964,420.995,327.964z"/>
	</g>
	<g>
		<line fill="none" x1="284.163" y1="231.312" x2="320" y2="267.149"/>
		<path fill="#FFFFFF" d="M320,274.751c-2.172,0-4.344-1.086-5.43-2.172l-35.837-35.837c-3.258-3.258-3.258-8.688,0-11.946
			s8.688-3.258,11.946,0l35.837,35.836c3.258,3.259,3.258,8.688,0,11.946C324.344,274.751,322.172,274.751,320,274.751z"/>
	</g>
	<g>
		<line fill="none" x1="356.923" y1="231.312" x2="320" y2="267.149"/>
		<path fill="#FFFFFF" d="M320,274.751c-2.172,0-4.344-1.086-5.43-2.172c-3.258-3.258-3.258-8.688,0-11.946l35.837-35.836
			c3.258-3.258,8.688-3.258,11.946,0s3.258,8.688,0,11.946l-35.838,35.837C324.344,274.751,322.172,274.751,320,274.751z"/>
	</g>
</g>
</svg>
