<?xml version="1.0" encoding="utf-8"?>
<!-- Generator: Adobe Illustrator 18.0.0, SVG Export Plug-In . SVG Version: 6.00 Build 0)  -->
<!DOCTYPE svg PUBLIC "-//W3C//DTD SVG 1.1//EN" "http://www.w3.org/Graphics/SVG/1.1/DTD/svg11.dtd">
<svg version="1.1" id="Capa_1" xmlns="http://www.w3.org/2000/svg" xmlns:xlink="http://www.w3.org/1999/xlink" x="0px" y="0px"
	 viewBox="0 0 256 256" enable-background="new 0 0 256 256" xml:space="preserve">
<g>
	<path fill="#FFFFFF" d="M256,128c0,70.7-57.3,128-128,128S0,198.7,0,128S57.3,0,128,0S256,57.3,256,128z M8.7,128
		C8.7,194,62,247.3,128,247.3S247.3,194,247.3,128S194,8.7,128,8.7S8.7,62,8.7,128z"/>
	<path fill="#FFFFFF" d="M173.2,113.5c0,1.2-0.6,2.3-1.2,2.9l-42.3,42.3c-1.7,1.7-4.6,1.7-6.4,0l-42.3-42.3c-1.7-1.7-1.7-4.6,0-6.4
		s4.6-1.7,6.4,0l39.4,39.4l39.4-39.4c1.7-1.7,4.6-1.7,6.4,0C172.6,111.2,173.2,112.4,173.2,113.5z"/>
</g>
</svg>
