<?xml version="1.0" encoding="utf-8"?>
<!-- Generator: Adobe Illustrator 18.0.0, SVG Export Plug-In . SVG Version: 6.00 Build 0)  -->
<!DOCTYPE svg PUBLIC "-//W3C//DTD SVG 1.1//EN" "http://www.w3.org/Graphics/SVG/1.1/DTD/svg11.dtd">
<svg version="1.1" id="Capa_1" xmlns="http://www.w3.org/2000/svg" xmlns:xlink="http://www.w3.org/1999/xlink" x="0px" y="0px"
	 viewBox="0 0 44.2 44.2" enable-background="new 0 0 44.2 44.2" xml:space="preserve">
<g>
	<path fill="#FFFFFF" d="M22.1,44.2C9.9,44.2,0,34.3,0,22.1S9.9,0,22.1,0s22.1,9.9,22.1,22.1S34.3,44.2,22.1,44.2z M22.1,1.5
		c-11.4,0-20.6,9.2-20.6,20.6s9.2,20.6,20.6,20.6s20.6-9.2,20.6-20.6S33.5,1.5,22.1,1.5z"/>
	<g>
		<line fill="#FFFFFF" x1="31.4" y1="22.5" x2="12.8" y2="22.5"/>
		<path fill="#FFFFFF" d="M31.4,23.2H12.8c-0.4,0-0.8-0.3-0.8-0.8s0.3-0.8,0.8-0.8h18.6c0.4,0,0.7,0.3,0.7,0.8S31.8,23.2,31.4,23.2z
			"/>
	</g>
	<g>
		<line fill="#FFFFFF" x1="31.4" y1="16.4" x2="12.8" y2="16.4"/>
		<path fill="#FFFFFF" d="M31.4,17.2H12.8c-0.4,0-0.8-0.3-0.8-0.8s0.3-0.8,0.8-0.8h18.6c0.4,0,0.7,0.3,0.7,0.8S31.8,17.2,31.4,17.2z
			"/>
	</g>
	<g>
		<line fill="#FFFFFF" x1="12.8" y1="28.5" x2="31.4" y2="28.5"/>
		<path fill="#FFFFFF" d="M31.4,29.3H12.8c-0.4,0-0.8-0.3-0.8-0.8s0.3-0.8,0.8-0.8h18.6c0.4,0,0.7,0.3,0.7,0.8S31.8,29.3,31.4,29.3z
			"/>
	</g>
</g>
</svg>
