<?xml version="1.0" encoding="utf-8"?>
<!-- Generator: Adobe Illustrator 16.0.0, SVG Export Plug-In . SVG Version: 6.00 Build 0)  -->
<!DOCTYPE svg PUBLIC "-//W3C//DTD SVG 1.1//EN" "http://www.w3.org/Graphics/SVG/1.1/DTD/svg11.dtd">
<svg version="1.1" id="Capa_1" xmlns="http://www.w3.org/2000/svg" xmlns:xlink="http://www.w3.org/1999/xlink" x="0px" y="0px"
	 width="960px" height="560px" viewBox="0 0 960 560" enable-background="new 0 0 960 560" xml:space="preserve">
<g>
	<g>
		<line fill="none" x1="361.743" y1="280" x2="598.257" y2="280"/>
		<path fill="#FFFFFF" d="M354.576,287.167c-1.792-1.792-2.687-4.479-2.687-6.271c0-5.375,4.479-9.854,9.854-9.854h236.512
			c5.376,0,9.855,4.479,9.855,9.854c0,5.376-4.479,9.855-9.855,9.855l-235.617-0.896
			C359.057,289.854,356.368,288.959,354.576,287.167z"/>
	</g>
	<g>
		<line fill="none" x1="480" y1="161.743" x2="480" y2="398.257"/>
		<path fill="#FFFFFF" d="M472.833,405.424c-1.792-1.792-2.688-4.48-2.688-6.271V162.64c0-5.375,4.479-9.855,9.854-9.854
			c5.375,0,9.854,4.479,9.854,9.854v236.513c0,5.375-4.479,9.854-9.854,9.854C477.312,408.11,474.625,407.216,472.833,405.424z"/>
	</g>
	<path fill="#FFFFFF" d="M282.01,477.99c-109.298-109.298-109.298-286.683,0-395.98c109.297-109.298,286.682-109.298,395.98,0
		c109.297,109.297,109.298,286.682,0,395.98C568.692,587.287,391.308,587.287,282.01,477.99z M664.552,95.448
		c-102.131-102.131-266.973-102.131-369.104,0s-102.13,266.973,0,369.104c102.13,102.13,266.972,102.13,369.103,0
		C766.682,362.421,766.683,197.579,664.552,95.448z"/>
</g>
</svg>
